<svg xmlns="http://www.w3.org/2000/svg" xmlns:xlink="http://www.w3.org/1999/xlink" width="500" zoomAndPan="magnify" viewBox="0 0 375 374.999991" height="500" preserveAspectRatio="xMidYMid meet" version="1.0"><defs><clipPath id="3ab9293c4e"><path d="M 112.5 112.5 L 262.5 112.5 L 262.5 262.5 L 112.5 262.5 Z M 112.5 112.5 " clip-rule="nonzero"/></clipPath></defs><g clip-path="url(#3ab9293c4e)"><path fill="#ece2d7" d="M 187.5 112.5 C 146.148438 112.5 112.5 146.148438 112.5 187.5 C 112.5 228.851562 146.148438 262.5 187.5 262.5 C 228.851562 262.5 262.5 228.851562 262.5 187.5 C 262.5 146.148438 228.851562 112.5 187.5 112.5 Z M 145.378906 237.753906 C 146.078125 215.101562 164.675781 196.875 187.5 196.875 C 210.324219 196.875 228.921875 215.101562 229.621094 237.753906 C 218.210938 247.332031 203.527344 253.125 187.5 253.125 C 171.472656 253.125 156.789062 247.332031 145.378906 237.753906 Z M 164.0625 164.0625 C 164.0625 151.140625 174.578125 140.625 187.5 140.625 C 200.421875 140.625 210.9375 151.140625 210.9375 164.0625 C 210.9375 176.984375 200.421875 187.5 187.5 187.5 C 174.578125 187.5 164.0625 176.984375 164.0625 164.0625 Z M 238.097656 229.242188 C 234.703125 211.71875 222.414062 197.375 206.132812 191.035156 C 214.6875 185.109375 220.3125 175.234375 220.3125 164.0625 C 220.3125 145.972656 205.589844 131.25 187.5 131.25 C 169.410156 131.25 154.6875 145.972656 154.6875 164.0625 C 154.6875 175.234375 160.3125 185.109375 168.867188 191.039062 C 152.585938 197.382812 140.296875 211.726562 136.898438 229.246094 C 127.519531 217.894531 121.875 203.34375 121.875 187.5 C 121.875 151.3125 151.3125 121.875 187.5 121.875 C 223.6875 121.875 253.125 151.3125 253.125 187.5 C 253.125 203.34375 247.480469 217.894531 238.097656 229.242188 Z M 238.097656 229.242188 " fill-opacity="1" fill-rule="nonzero"/></g></svg>