<svg xmlns="http://www.w3.org/2000/svg" xmlns:xlink="http://www.w3.org/1999/xlink" width="500" zoomAndPan="magnify" viewBox="0 0 375 374.999991" height="500" preserveAspectRatio="xMidYMid meet" version="1.0"><defs><clipPath id="13b1b38d86"><path d="M 168 247 L 207 247 L 207 262.5 L 168 262.5 Z M 168 247 " clip-rule="nonzero"/></clipPath><clipPath id="f98c1039ce"><path d="M 119.453125 113 L 255.203125 113 L 255.203125 243 L 119.453125 243 Z M 119.453125 113 " clip-rule="nonzero"/></clipPath></defs><g clip-path="url(#13b1b38d86)"><path fill="#fbf1e5" d="M 187.5 255.714844 C 182.089844 255.714844 177.21875 252.519531 175.035156 247.558594 L 168.820312 250.277344 C 172.078125 257.6875 179.398438 262.5 187.5 262.5 C 195.71875 262.5 203.070312 257.628906 206.269531 250.066406 L 200.023438 247.40625 C 197.871094 252.457031 192.96875 255.714844 187.5 255.714844 Z M 187.5 255.714844 " fill-opacity="1" fill-rule="nonzero"/></g><g clip-path="url(#f98c1039ce)"><path fill="#fbf1e5" d="M 254.207031 232.734375 L 236.273438 217.789062 C 235.496094 217.132812 235.046875 216.207031 235.046875 215.191406 L 235.046875 174.1875 C 235.046875 161.066406 229.820312 148.84375 220.316406 139.785156 C 214.726562 134.464844 208.089844 130.699219 200.917969 128.609375 C 201.066406 127.5625 201.128906 126.515625 201.039062 125.410156 C 200.53125 119.613281 196.257812 114.683594 190.636719 113.425781 C 186.511719 112.5 182.269531 113.457031 179.011719 116.054688 C 175.785156 118.65625 173.929688 122.511719 173.929688 126.667969 C 173.929688 127.355469 174.050781 127.980469 174.140625 128.636719 C 154.296875 134.554688 139.949219 153.265625 139.949219 175.441406 L 139.949219 215.160156 C 139.949219 216.175781 139.5 217.132812 138.726562 217.761719 L 120.792969 232.703125 C 120.015625 233.359375 119.566406 234.316406 119.566406 235.304688 L 119.566406 238.710938 C 119.566406 240.59375 121.09375 242.117188 122.976562 242.117188 L 252.023438 242.117188 C 253.90625 242.117188 255.429688 240.59375 255.429688 238.710938 L 255.429688 235.304688 C 255.402344 234.316406 254.953125 233.359375 254.207031 232.734375 Z M 180.683594 126.667969 C 180.683594 124.574219 181.613281 122.660156 183.226562 121.347656 C 184.871094 120.03125 186.929688 119.554688 189.113281 120.03125 C 191.832031 120.660156 193.984375 123.140625 194.253906 125.980469 C 194.285156 126.367188 194.222656 126.753906 194.195312 127.144531 C 191.234375 126.726562 188.246094 126.578125 185.167969 126.695312 C 183.675781 126.753906 182.179688 126.90625 180.714844 127.144531 C 180.746094 126.964844 180.683594 126.816406 180.683594 126.667969 Z M 128.265625 235.332031 L 143.058594 222.988281 C 145.390625 221.046875 146.734375 218.207031 146.734375 215.160156 L 146.734375 175.441406 C 146.734375 152.9375 163.769531 134.496094 185.527344 133.480469 C 196.824219 132.941406 207.492188 136.945312 215.621094 144.6875 C 223.75 152.457031 228.234375 162.917969 228.234375 174.1875 L 228.234375 215.160156 C 228.234375 218.179688 229.578125 221.046875 231.910156 222.988281 L 246.703125 235.332031 Z M 128.265625 235.332031 " fill-opacity="1" fill-rule="nonzero"/></g></svg>