<svg xmlns="http://www.w3.org/2000/svg" xmlns:xlink="http://www.w3.org/1999/xlink" width="500" zoomAndPan="magnify" viewBox="0 0 375 374.999991" height="500" preserveAspectRatio="xMidYMid meet" version="1.0"><defs><clipPath id="0019f470f9"><path d="M 112.5 144.136719 L 262.5 144.136719 L 262.5 231 L 112.5 231 Z M 112.5 144.136719 " clip-rule="nonzero"/></clipPath></defs><g clip-path="url(#0019f470f9)"><path fill="#fbf1e5" d="M 258.453125 230.640625 L 116.546875 230.640625 C 116.027344 230.640625 115.523438 230.542969 115.039062 230.34375 C 114.558594 230.140625 114.128906 229.855469 113.761719 229.488281 C 113.390625 229.117188 113.105469 228.691406 112.90625 228.207031 C 112.707031 227.726562 112.605469 227.222656 112.605469 226.699219 C 112.605469 226.179688 112.707031 225.675781 112.90625 225.191406 C 113.105469 224.710938 113.390625 224.28125 113.761719 223.914062 C 114.128906 223.542969 114.558594 223.257812 115.039062 223.058594 C 115.523438 222.859375 116.027344 222.757812 116.546875 222.757812 L 258.453125 222.757812 C 258.972656 222.757812 259.476562 222.859375 259.960938 223.058594 C 260.441406 223.257812 260.871094 223.542969 261.238281 223.914062 C 261.609375 224.28125 261.894531 224.710938 262.09375 225.191406 C 262.292969 225.675781 262.394531 226.179688 262.394531 226.699219 C 262.394531 227.222656 262.292969 227.726562 262.09375 228.207031 C 261.894531 228.691406 261.609375 229.117188 261.238281 229.488281 C 260.871094 229.855469 260.441406 230.140625 259.960938 230.34375 C 259.476562 230.542969 258.972656 230.640625 258.453125 230.640625 Z M 258.453125 191.328125 L 116.546875 191.328125 C 116.027344 191.328125 115.523438 191.226562 115.039062 191.027344 C 114.558594 190.828125 114.128906 190.542969 113.761719 190.171875 C 113.390625 189.804688 113.105469 189.375 112.90625 188.894531 C 112.707031 188.410156 112.605469 187.90625 112.605469 187.386719 C 112.605469 186.863281 112.707031 186.359375 112.90625 185.875 C 113.105469 185.394531 113.390625 184.96875 113.761719 184.597656 C 114.128906 184.226562 114.558594 183.945312 115.039062 183.742188 C 115.523438 183.542969 116.027344 183.445312 116.546875 183.445312 L 258.453125 183.445312 C 258.972656 183.445312 259.476562 183.542969 259.960938 183.742188 C 260.441406 183.945312 260.871094 184.226562 261.238281 184.597656 C 261.609375 184.96875 261.894531 185.394531 262.09375 185.875 C 262.292969 186.359375 262.394531 186.863281 262.394531 187.386719 C 262.394531 187.90625 262.292969 188.410156 262.09375 188.894531 C 261.894531 189.375 261.609375 189.804688 261.238281 190.171875 C 260.871094 190.542969 260.441406 190.828125 259.960938 191.027344 C 259.476562 191.226562 258.972656 191.328125 258.453125 191.328125 Z M 258.453125 152.019531 L 116.546875 152.019531 C 116.027344 152.019531 115.523438 151.917969 115.039062 151.71875 C 114.558594 151.519531 114.128906 151.234375 113.761719 150.867188 C 113.390625 150.496094 113.105469 150.070312 112.90625 149.585938 C 112.707031 149.105469 112.605469 148.601562 112.605469 148.078125 C 112.605469 147.554688 112.707031 147.050781 112.90625 146.570312 C 113.105469 146.085938 113.390625 145.660156 113.761719 145.289062 C 114.128906 144.921875 114.558594 144.636719 115.039062 144.4375 C 115.523438 144.238281 116.027344 144.136719 116.546875 144.136719 L 258.453125 144.136719 C 258.972656 144.136719 259.476562 144.238281 259.960938 144.4375 C 260.441406 144.636719 260.871094 144.921875 261.238281 145.289062 C 261.609375 145.660156 261.894531 146.085938 262.09375 146.570312 C 262.292969 147.050781 262.394531 147.554688 262.394531 148.078125 C 262.394531 148.601562 262.292969 149.105469 262.09375 149.585938 C 261.894531 150.070312 261.609375 150.496094 261.238281 150.867188 C 260.871094 151.234375 260.441406 151.519531 259.960938 151.71875 C 259.476562 151.917969 258.972656 152.019531 258.453125 152.019531 Z M 258.453125 152.019531 " fill-opacity="1" fill-rule="nonzero"/></g></svg>