<svg xmlns="http://www.w3.org/2000/svg" xmlns:xlink="http://www.w3.org/1999/xlink" width="500" zoomAndPan="magnify" viewBox="0 0 375 374.999991" height="500" preserveAspectRatio="xMidYMid meet" version="1.0"><defs><clipPath id="2070e7d84d"><path d="M 113 115.546875 L 262 115.546875 L 262 231 L 113 231 Z M 113 115.546875 " clip-rule="nonzero"/></clipPath></defs><g clip-path="url(#2070e7d84d)"><path fill="#fbf1e5" d="M 250.125 203.476562 C 253.6875 184.328125 257.824219 165.285156 261.425781 146.148438 C 262.503906 140.378906 259.246094 133 252.941406 132.082031 C 250.164062 131.3125 246.90625 134.277344 248.046875 137.109375 C 248.40625 139.488281 251.121094 139.757812 252.941406 140.367188 C 253.5 141.910156 254.523438 143.503906 253.871094 145.21875 C 253.472656 147.273438 253.054688 149.324219 252.648438 151.378906 L 159.839844 151.378906 C 158.003906 151.378906 156.515625 152.867188 156.515625 154.703125 C 156.515625 156.539062 158.003906 158.027344 159.839844 158.027344 L 251.324219 158.027344 C 248.84375 170.484375 246.332031 182.9375 243.886719 195.40625 C 243.34375 197.996094 242.957031 200.671875 241.867188 203.117188 C 239.910156 203.875 237.730469 203.492188 235.695312 203.597656 C 211.5625 203.53125 187.425781 203.582031 163.304688 203.570312 C 157.171875 177.425781 151.125 151.269531 144.980469 125.128906 C 144.195312 120.191406 139.980469 115.648438 134.742188 115.832031 C 128.476562 115.859375 122.199219 115.566406 115.953125 116.003906 C 112.507812 117.1875 112.507812 122.28125 115.886719 123.570312 C 122.480469 124.195312 129.144531 123.398438 135.738281 123.957031 C 137.320312 124.726562 137.027344 126.921875 137.640625 128.359375 C 144.847656 159.433594 152.121094 190.496094 159.460938 221.5625 C 160.40625 226.625 165.230469 230.671875 170.472656 230.164062 C 196.242188 230.125 222.011719 230.257812 247.769531 230.097656 C 252.6875 230.257812 252.714844 222.132812 247.796875 222.253906 C 224.683594 222.09375 201.5625 222.214844 178.449219 222.1875 C 174.976562 222.105469 171.457031 222.503906 168.023438 221.8125 C 166.496094 218.582031 166.085938 214.964844 165.167969 211.546875 C 190.007812 211.546875 214.847656 211.5625 239.6875 211.546875 C 244.511719 211.960938 249.40625 208.300781 250.125 203.476562 Z M 250.125 203.476562 " fill-opacity="1" fill-rule="nonzero"/></g><path fill="#fbf1e5" d="M 173.316406 233.105469 C 168.769531 233.996094 164.992188 237.785156 164.113281 242.332031 C 162.625 248.59375 167.09375 255.429688 173.449219 256.507812 C 180.03125 258.023438 187.09375 252.941406 187.652344 246.199219 C 188.902344 238.394531 180.976562 231.148438 173.316406 233.105469 Z M 179.085938 246.972656 C 177.8125 249.074219 174.566406 249.484375 172.957031 247.53125 C 170.75 245.578125 171.957031 241.667969 174.710938 240.976562 C 177.984375 239.726562 181.402344 244.21875 179.085938 246.972656 Z M 179.085938 246.972656 " fill-opacity="1" fill-rule="nonzero"/><path fill="#fbf1e5" d="M 231.945312 233.078125 C 223.238281 234.40625 219.261719 246.203125 225.242188 252.597656 C 230.644531 259.433594 242.863281 257.320312 245.523438 248.96875 C 249.03125 240.65625 240.707031 230.867188 231.945312 233.078125 Z M 236.480469 248.089844 C 232.398438 251.265625 227.636719 244.019531 232.132812 241.496094 C 236.214844 238.300781 241 245.5625 236.480469 248.089844 Z M 236.480469 248.089844 " fill-opacity="1" fill-rule="nonzero"/></svg>